# xmcd
#
# Track frame offsets:
#	150
#	15567
#	23781
#	42073
#	59840
#	74686
#	91638
#	105893
#	121626
#	139038
#	156690
#	173699
#	196034
#	212304
#	227176
#	240643
#	255504
#
# Disc length: 3593 seconds
#
# Revision: 0
# Processed by: cddbd v1.5.2PL0 Copyright (c) Steve Scherf et al.
# Submitted via: EasyCDDAExtractor 11.1.0.1
#
DISCID=d60e0711
DTITLE=Various Artist - CDX Vol 443
DYEAR=2008
DGENRE=Country
TTITLE0=Jennifer Hanson - 73
TTITLE1=Jennifer Hanson - Story Behind The Song
TTITLE2=Montgomery Gentry - Back When I Knew It All
TTITLE3=Rascal Flatts - Every Day
TTITLE4=Julianne Hough - That Song In My Head
TTITLE5=Carlene Carter - Bring Love
TTITLE6=Will Peppers - Cheaper Than A Shrink
TTITLE7=Jeff Bates - Don't Hate Me For Loving You
TTITLE8=Lonestar - Let Me Love You
TTITLE9=Ronnie Gilley - Shortcut Home
TTITLE10=John Berry - The Balloon Song
TTITLE11=Ronnie Kent - Biits And Pieces
TTITLE12=Dennie Hall - Do It For The Girls
TTITLE13=Danielle Reed - Follow Me
TTITLE14=Deanna Cox - I'm A Long Gone Mama
TTITLE15=Mark Alan Thompson - Perfume And Gasoline
TTITLE16=Vince Hatfield - Stuck On You
EXTD=
EXTT0=
EXTT1=
EXTT2=
EXTT3=
EXTT4=
EXTT5=
EXTT6=
EXTT7=
EXTT8=
EXTT9=
EXTT10=
EXTT11=
EXTT12=
EXTT13=
EXTT14=
EXTT15=
EXTT16=
PLAYORDER=
